<svg width="22" height="22" viewBox="0 0 22 22" fill="none" xmlns="http://www.w3.org/2000/svg">
<path d="M6.21739 5.7619C9.09885 5.7619 11.4348 4.69591 11.4348 3.38095C11.4348 2.06599 9.09885 1 6.21739 1C3.3359 1 1 2.06599 1 3.38095C1 4.69591 3.3359 5.7619 6.21739 5.7619Z" stroke="#0962E8" stroke-linecap="round" stroke-linejoin="round"/>
<path d="M1 3.85645C1 3.85645 1 5.87483 1 7.18978C1 8.50473 3.3359 9.57073 6.21739 9.57073C9.09885 9.57073 11.4348 8.50473 11.4348 7.18978C11.4348 6.41092 11.4348 3.85645 11.4348 3.85645" stroke="#0962E8" stroke-linecap="round" stroke-linejoin="round"/>
<path d="M1 6.71533C1 6.71533 1 9.40651 1 11.1598C1 12.913 3.3359 14.3344 6.21739 14.3344C9.09885 14.3344 11.4348 12.913 11.4348 11.1598C11.4348 10.1213 11.4348 6.71533 11.4348 6.71533" stroke="#0962E8" stroke-linecap="round" stroke-linejoin="round"/>
<path d="M1 10.5239C1 10.5239 1 13.2151 1 14.9684C1 16.7216 3.3359 18.143 6.21739 18.143C9.09885 18.143 11.4348 16.7216 11.4348 14.9684C11.4348 13.9299 11.4348 10.5239 11.4348 10.5239" stroke="#0962E8" stroke-linecap="round" stroke-linejoin="round"/>
<path d="M1 15.2847C1 15.2847 1 17.303 1 18.618C1 19.933 3.3359 20.999 6.21739 20.999C9.09885 20.999 11.4348 19.933 11.4348 18.618C11.4348 17.8391 11.4348 15.2847 11.4348 15.2847" stroke="#0962E8" stroke-linecap="round" stroke-linejoin="round"/>
<path d="M16.2172 14.3339C18.8585 14.3339 20.9998 13.0547 20.9998 11.4768C20.9998 9.89883 18.8585 8.61963 16.2172 8.61963C13.5758 8.61963 11.4346 9.89883 11.4346 11.4768C11.4346 13.0547 13.5758 14.3339 16.2172 14.3339Z" stroke="#0962E8" stroke-linecap="round" stroke-linejoin="round"/>
<path d="M11.4346 10.5239C11.4346 10.5239 11.4346 13.2151 11.4346 14.9684C11.4346 16.7216 13.5758 18.143 16.2172 18.143C18.8585 18.143 20.9998 16.7216 20.9998 14.9684C20.9998 13.9299 20.9998 10.5239 20.9998 10.5239" stroke="#0962E8" stroke-linecap="round" stroke-linejoin="round"/>
<path d="M11.4346 15.2847C11.4346 15.2847 11.4346 17.303 11.4346 18.618C11.4346 19.933 13.5758 20.999 16.2172 20.999C18.8585 20.999 20.9998 19.933 20.9998 18.618C20.9998 17.8391 20.9998 15.2847 20.9998 15.2847" stroke="#0962E8" stroke-linecap="round" stroke-linejoin="round"/>
</svg>
